<mxfile host="app.diagrams.net" modified="2023-11-30T17:03:38.644Z" agent="Mozilla/5.0 (Windows NT 10.0; Win64; x64) AppleWebKit/537.36 (KHTML, like Gecko) Chrome/119.0.0.0 Safari/537.36" version="22.1.5" etag="FR5uPGW4308nrpQn-uIW" type="github">
  <diagram name="Page-1" id="NCuWkJbCl2bVnj3DkMHt">
    <mxGraphModel>
      <root>
        <mxCell id="0" />
        <mxCell id="1" parent="0" />
      </root>
    </mxGraphModel>
  </diagram>
</mxfile>
